<?xml version="1.0" encoding="utf-8"?>
<!-- Generator: Adobe Illustrator 26.5.1, SVG Export Plug-In . SVG Version: 6.00 Build 0)  -->
<svg version="1.1" id="Warstwa_1" xmlns="http://www.w3.org/2000/svg" xmlns:xlink="http://www.w3.org/1999/xlink" x="0px" y="0px"
	 viewBox="0 0 800 800" style="enable-background:new 0 0 800 800;" xml:space="preserve">
<style type="text/css">
	.st0{fill:#3F3D56;}
	.st1{fill:#FAF9F5;}
	.st2{fill:#E6E6E6;}
	.st3{fill:#C60089;}
	.st4{fill:#FFB6B6;}
	.st5{fill:#CCCCCC;}
	.st6{fill:#2F2E41;}
	.st7{fill:#FFB8B8;}
	.st8{fill:#CCBE93;}
	.st9{fill:#CACACA;}
</style>
<g>
	<path class="st0" d="M726.55,666.4H277.93c-5.54-0.01-10.03-4.5-10.03-10.03V14.13c0.01-5.54,4.5-10.03,10.03-10.03h448.62
		c5.54,0.01,10.03,4.5,10.03,10.03v642.23C736.58,661.9,732.09,666.39,726.55,666.4z"/>
	<path class="st1" d="M717.1,656.95H287.38c-5.54-0.01-10.03-4.5-10.03-10.03V23.58c0.01-5.54,4.5-10.03,10.03-10.03H717.1
		c5.54,0.01,10.03,4.5,10.03,10.03v623.34C727.13,652.46,722.64,656.95,717.1,656.95z"/>
	<path class="st2" d="M404.92,624.27c-38.23-50.46-23.07-108.06-45.46-148.24c-85.83-153.99,19.86-139.8,139.36-109.86l0.28,3.32
		c-76.06,11.74-126.07,50.88-137.23,107.39c-8.67,43.92,7.24,95.41,44.8,145L404.92,624.27z"/>
	<path class="st2" d="M488.89,436.46l-0.8-3.17c42.67-19.35,39-76.97,77.18-90.13c290.81-100.23,3.75-111.54-60.82-164.56
		C446.71,131.2,383.78,76.08,303.81,47.69l0.64-3.23c80.32,28.52,151.93,75.25,201.62,131.61c49.94,56.64,71.82,116.29,61.62,167.97
		C559.64,384.78,532.39,416.74,488.89,436.46z"/>
	<path class="st3" d="M372.74,325.41c-19.5-1.54,3.51-14.44,5.05-33.94c1.54-19.5,18.6-34.06,38.1-32.52
		c19.5,1.54,34.06,18.6,32.52,38.1S392.24,326.95,372.74,325.41z"/>
	<path class="st3" d="M559.97,204.01c-19.5-1.54-34.06-18.6-32.52-38.1s-37.18-32.54-17.68-31c19.5,1.54,89.84,17.08,88.3,36.58
		C596.52,190.99,579.47,205.55,559.97,204.01C559.97,204.01,559.97,204.01,559.97,204.01z"/>
	<path class="st0" d="M602.65,159.56c2.57,5.33,1.05,11.49-2.34,16.09c-3.86,5.24-10,7.82-16.3,8.67
		c-6.76,0.82-13.62,0.26-20.15-1.66c-6.3-1.82-12.85-5.72-14.15-12.69c-0.87-4.64,1.11-9.6,5.94-10.89
		c3.93-0.99,8.1,0.14,10.99,2.98c4,4.17,3.7,10.86,1.15,15.7c-2.99,5.69-8.98,8.83-15.14,9.87c-7.32,1.23-14.68-0.49-21.56-2.94
		c-7.48-2.66-14.75-5.98-22.08-9.02c-14.3-5.94-28.91-11.52-44.29-13.88c-23.49-3.61-51.38,2.01-65.76,22.61
		c-7.76,11.12-9.96,25.06-8.29,38.33c1.76,13.99,7.9,26.85,16.03,38.23c4.3,5.92,9,11.55,14.07,16.83
		c3.37,3.28,4.43,8.27,2.68,12.63c-4.46,10.95-22.27,7.46-23.6-3.83c-0.6-5.13,2.26-10.41,5.83-13.89c4.06-3.79,9.17-6.27,14.66-7.1
		c11.56-1.93,23.78,2.36,32.62,9.8c9.98,8.41,15.6,21.19,18.56,33.63c3.37,14.17,3.54,28.74,3.86,43.22
		c0.33,14.82,0.89,29.81,5.14,44.11c3.46,11.51,8.79,22.37,15.8,32.14c13.98,19.68,33.86,34.41,56.76,42.06
		c5.54,1.8,11.22,3.13,16.98,3.98c2.26,0.33,2.52-3.2,0.28-3.53c-25.12-3.72-48.21-17.32-64.75-36.44
		c-8.29-9.54-14.83-20.45-19.35-32.25c-5.39-14.21-6.76-29.31-7.2-44.39c-0.45-15.4-0.2-30.95-3.29-46.12
		c-2.73-13.42-8.07-27-17.98-36.77c-8.73-8.62-21.23-13.95-33.57-13.38c-11.49,0.53-23.77,6.86-27.19,18.58
		c-1.6,5.5-0.58,11.41,3.62,15.49c4.88,4.63,11.95,6.13,18.29,3.87c7-3.03,10.56-10.87,8.23-18.13c-0.95-2.57-2.46-4.9-4.44-6.79
		c-10.36-11.07-19.88-23.46-25.04-37.87c-4.81-13.44-5.8-28.91-0.25-42.28c10.51-25.32,41.01-32.93,65.86-29.39
		c16.26,2.32,31.66,8.47,46.72,14.77c7.69,3.22,15.33,6.79,23.31,9.25c7.14,2.2,14.81,3.31,22.17,1.5
		c6.42-1.58,12.33-5.31,15.44-11.29c2.83-5.43,3.31-12.31-0.05-17.63c-4.86-7.69-18.28-9.41-23.17-0.78
		c-3.24,5.73-1.65,13.06,2.61,17.81c4.78,5.33,11.93,7.5,18.78,8.6c12.94,2.07,28.86,0.44,35.78-12.33
		c2.85-5.26,3.62-11.54,0.97-17.04c-0.46-0.87-1.53-1.2-2.39-0.74C602.62,157.71,602.27,158.71,602.65,159.56L602.65,159.56z"/>
	<path class="st3" d="M561.04,475.28c-20.68-1.63-75.97,26.66-90.93,14.49c-1.87-1.51-3.68-3.09-5.43-4.75
		c-5.72-5.37-10.78-11.4-15.05-17.98c-0.74-1.11-1.45-2.23-2.13-3.37c-2.4-4.02-4.51-8.2-6.32-12.52c-0.32-0.78-0.63-1.58-0.95-2.37
		c-19.65-50.78,5.59-107.87,56.37-127.52c39.3-15.21,83.92-3.75,111.03,28.5c0.8,0.94,1.58,1.9,2.34,2.89
		c7.62,9.76,13.33,20.88,16.82,32.77c0,0.01,0.01,0.01,0.01,0.02c5.2,17.82,5.29,36.75,0.24,54.62l0,0.02
		c-0.11,0.39-0.23,0.79-0.35,1.18C613.78,484.98,608.29,479.02,561.04,475.28z"/>
	<path class="st0" d="M441.63,451.2c-0.15,0-0.3-0.01-0.45-0.05c-0.32-0.78-0.63-1.58-0.95-2.37c0.27-0.68,0.94-1.12,1.67-1.11
		c1.79-0.01,3.57-0.21,5.32-0.61c15.14-3.42,23.97-18.93,27.75-32.77c4.64-16.94,4.71-35.13,13.09-50.93
		c3.26-6.49,8.05-12.09,13.96-16.32c6.49-4.4,14.37-6.24,22.14-5.18c18.27,2.41,31.61,16.48,48.57,22.28
		c6.99,2.39,14.43,2.98,21.41,0.26c5.94-2.3,11.35-6.85,12.58-13.38c0.08-0.54,0.41-1,0.89-1.26c0.8,0.94,1.58,1.9,2.34,2.89
		c-0.27,1.18-0.67,2.33-1.18,3.42c-2.98,6.25-8.93,10.3-15.4,12.32c-7.49,2.33-15.28,1.45-22.57-1.17
		c-17-6.09-30.98-21.15-49.75-22.08c-16.27-0.81-27.51,12.56-32.92,26.51c-6.69,17.26-5.7,36.6-13.21,53.61
		C469.03,438.64,457.18,451.14,441.63,451.2z"/>
	<path class="st0" d="M449.62,467.04c-0.74-1.11-1.45-2.23-2.13-3.37c0.33-0.27,0.76-0.37,1.18-0.3
		c15.18,1.79,30.47-2.28,42.74-11.39c5.38-3.94,10.07-8.76,13.84-14.25c3.92-5.75,6.29-12.22,8.95-18.61
		c2.62-6.28,5.69-12.64,10.89-17.19c5.3-4.64,12.15-6.58,19.08-6.79c16.43-0.49,30.75,8.85,46.74,10.77
		c7.13,0.86,14.21-0.17,20.32-4.15c5.27-3.44,9.11-8.84,8.86-15.31c-0.09-2.14,3.02-2,3.48-0.12c0.03,0.13,0.05,0.26,0.05,0.39
		c0.28,7.53-4.35,13.97-10.44,17.96c-7.08,4.64-15.35,5.79-23.63,4.61c-16.02-2.28-30.83-11.98-47.4-10.52
		c-7.03,0.41-13.57,3.78-17.98,9.27c-4.36,5.6-6.67,12.44-9.36,18.93c-2.55,6.49-6.13,12.52-10.58,17.89
		c-4.51,5.24-9.82,9.72-15.75,13.28C476.86,465.26,463.21,468.38,449.62,467.04z"/>
	<path class="st0" d="M470.1,489.77c-1.87-1.51-3.68-3.09-5.43-4.75c9.02,2.3,18.42,2.69,27.6,1.15
		c11.55-1.85,22.44-6.59,31.68-13.77c4.6-3.6,8.65-7.84,12.04-12.6c3.86-5.44,7.24-11.45,13.07-15.05
		c12.65-7.81,27.79-0.67,40.42,3.17c6.59,2.01,13.67,3.38,20.38,1.15c5.21-1.73,10.26-5.57,11.29-11.25
		c0.4-2.23,3.94-1.96,3.53,0.28c-0.08,0.42-0.17,0.84-0.28,1.26c-1.62,6.16-6.66,10.61-12.61,12.76c-7.76,2.8-15.81,1.49-23.52-0.86
		c-12.69-3.87-29.26-11.82-40.74-0.85c-4.84,4.63-7.81,10.89-12.18,15.95c-3.89,4.53-8.39,8.51-13.36,11.83
		C506.73,488.36,488.24,492.48,470.1,489.77z"/>
	<path class="st2" d="M717.69,741.36h-83.82c-5.54-0.01-10.03-4.5-10.03-10.03v-29.51c0.01-5.54,4.5-10.03,10.03-10.03h83.82
		c5.54,0.01,10.03,4.5,10.03,10.03v29.51C727.72,736.87,723.23,741.36,717.69,741.36z"/>
	<polygon class="st4" points="231.61,398.84 233.82,419.36 232.52,446.27 292.12,439.19 297.72,398.84 290.58,398.91 	"/>
	<path class="st5" d="M302.72,335.25l-18.43-6.82L276.42,317l-28.32-2.83l-17.47,11.19l-14.65,7.46l0.25,38.94l16.84,69.74
		l60.21-2.36l7.93-49.73c0,0,18.41-24.73-1.42-38.89L302.72,335.25z"/>
	<polygon class="st4" points="200.69,771.39 213.72,771.39 219.92,721.13 200.69,721.13 	"/>
	<path class="st6" d="M196.44,762.47l20.82-1.24v8.92l19.79,13.67c2.53,1.75,3.17,5.22,1.42,7.75c-1.04,1.51-2.75,2.41-4.58,2.41
		H209.1l-4.27-8.82l-1.67,8.82h-9.34L196.44,762.47z"/>
	<polygon class="st4" points="273.89,771.39 286.92,771.39 293.12,721.13 273.89,721.13 	"/>
	<path class="st6" d="M269.64,762.47l20.82-1.24v8.92l19.79,13.67c2.53,1.75,3.17,5.22,1.42,7.75c-1.04,1.51-2.75,2.41-4.58,2.41
		H282.3l-4.27-8.82l-1.67,8.82h-9.34L269.64,762.47z"/>
	<path class="st6" d="M195.07,728.05h0.14l2.51-81.72c-3.29-6.35-3.19-13.93,0.28-20.19l0.36-0.65l-0.93-4.31
		c-1.19-5.54-0.65-11.31,1.57-16.53l2.34-76.23c-8.35-54.13,31.45-89.43,31.45-89.43h59.63l12.8,43.98
		c8.46,82.45,6.93,162.8-6.5,240.64l0.37,0.19c1.32,0.46,1.88,2.28,1.26,4.08c-0.62,1.8-2.19,2.89-3.51,2.43l-31.49-1.1
		c-1.32-0.46-1.88-2.28-1.26-4.08c0.62-1.8,2.19-2.89,3.51-2.43l2.14,1.08l-4.57-78.86l0.51-14.4l-1.04-16.34l-4.83-73.5
		l-18.27,90.39l-18.66,97.91c1.41,1.27,1.51,3.44,0.24,4.85c-0.65,0.72-1.58,1.13-2.56,1.13h-25.48c-1.9,0-3.44-1.55-3.44-3.45
		C191.64,729.59,193.17,728.06,195.07,728.05L195.07,728.05z"/>
	<path class="st4" d="M188.87,496.52c-4.3-4.14-4.42-10.99-0.28-15.29c0.44-0.46,0.92-0.88,1.44-1.25l15.89-97.52l18.63,6.56
		l-18.88,93.94c3.19,5.08,1.66,11.79-3.42,14.99C198,500.62,192.46,500.03,188.87,496.52L188.87,496.52z"/>
	<path class="st5" d="M218.49,332.73c0,0-5.34-2.01-7.28,9.93c-1.55,9.56-16.71,67.28-15.28,80.65c-3.66,1.28-5.99,4.88-5.65,8.74
		l27.95,0.14c4.28-4.67,4.84-10.3,2.77-11.69l3.87-17.06l18.21-55.05l-20.7-14.28L218.49,332.73z"/>
	<path class="st4" d="M317.57,500.67c4.64-3.76,5.35-10.57,1.59-15.21c-0.4-0.49-0.84-0.95-1.33-1.37l-5.67-98.09l-20.9,4.49
		L302,485.72c-3.62,4.79-2.67,11.61,2.12,15.23C308.13,503.97,313.69,503.86,317.57,500.67L317.57,500.67z"/>
	<path class="st5" d="M302.16,334.94c0,0,5.5-1.55,6.4,10.52c0.72,9.66,10.86,68.47,8.28,81.67c3.54,1.59,5.54,5.38,4.88,9.2
		l-27.86-2.26c-3.86-5.02-3.93-10.68-1.75-11.88l-2.38-17.33l-13.41-56.42l21.85-12.44L302.16,334.94z"/>
	<circle class="st7" cx="249.83" cy="283.97" r="28.19"/>
	<path class="st8" d="M193.81,343.2c-5.96-2.11-11.93-4.23-17.89-6.35c1.03-1.73,2.34-3.27,3.87-4.56c5.68-4.74,13.52-5.6,20.73-7.2
		c7.22-1.6,15.06-4.88,17.7-11.78c2.74-7.18-1.23-14.92-3.54-22.24c-3.23-10.2-3.17-21.6,1.17-31.38
		c4.33-9.78,13.13-17.71,23.57-20.04c10.44-2.32,22.25,1.46,28.67,10.01c8.56-2.57,17.7,1.66,21.28,9.85
		c1.5,3.75,1.54,8.26-0.69,11.63c-2.23,3.37-6.99,5.1-10.58,3.22l2.08-5.28c-6.43,2.18-10.62,13.82-9.75,20.56
		c0.86,6.73,4.79,12.63,8.78,18.12c3.99,5.5,8.24,11.05,9.95,17.62c2.47,9.45-0.87,19.78-7.04,27.36
		c-6.17,7.58-14.87,12.72-23.87,16.5c-6.74,2.83-13.74,4.99-20.91,6.44c1.28-2.49,2.55-4.98,3.83-7.47l-15.19,9.19
		c-2.94,0.29-5.9,0.46-8.86,0.51c-8.62,0.15-17.4-0.75-25.29-4.19c-7.9-3.45-14.83-9.7-17.69-17.83c-0.92-2.63-1.35-5.4-1.28-8.18
		C179.85,346.21,186.83,344.71,193.81,343.2z"/>
	<path class="st3" d="M165.39,762.92c-2.35,0.11-4.35-1.71-4.46-4.07c-0.06-1.26,0.44-2.47,1.37-3.33c0.11-0.43,0.18-0.73,0.29-1.16
		c-0.04-0.09-0.08-0.19-0.12-0.28c-2.47-5.83-9.19-8.55-15.01-6.08c-2.77,1.17-4.96,3.38-6.12,6.16
		c-3.46,8.32-7.86,16.66-8.94,25.46c-0.48,3.89-0.28,7.83,0.59,11.66c-8.12-17.71-12.33-36.95-12.36-56.43
		c0-4.89,0.27-9.77,0.81-14.63c0.45-3.98,1.07-7.94,1.87-11.86c4.35-21.3,13.69-41.26,27.26-58.25c6.57-3.58,11.87-9.09,15.21-15.78
		c1.21-2.41,2.06-4.97,2.54-7.62c-0.74,0.1-1.49,0.16-2.23,0.21c-0.23,0.01-0.47,0.02-0.7,0.04l-0.09,0
		c-2.33,0.1-4.31-1.7-4.41-4.03c-0.05-1.03,0.29-2.05,0.94-2.85c0.32-0.39,0.64-0.79,0.96-1.18c0.49-0.61,0.98-1.2,1.47-1.81
		c0.06-0.06,0.11-0.12,0.16-0.18c0.56-0.69,1.12-1.37,1.68-2.06c-1.02-1.58-2.39-2.91-4.01-3.87c-5.6-3.28-13.32-1.01-17.36,4.05
		c-4.05,5.06-4.82,12.17-3.41,18.49c1.38,5.38,3.68,10.49,6.77,15.1c-0.3,0.39-0.62,0.76-0.92,1.15
		c-5.55,7.13-10.38,14.8-14.44,22.87c0.99-9.05-0.19-18.2-3.43-26.71c-3.29-7.93-9.45-14.6-14.87-21.46
		c-6.52-8.23-19.87-4.64-21.02,5.8c-0.01,0.1-0.02,0.2-0.03,0.3c0.81,0.45,1.59,0.94,2.37,1.45c2.66,1.78,3.37,5.37,1.6,8.03
		c-0.9,1.35-2.33,2.26-3.93,2.5l-0.12,0.02c0.29,2.9,0.79,5.78,1.52,8.61c4.24,15.95,14.93,29.42,29.51,37.15
		c0.47,0.24,0.93,0.49,1.41,0.72c-4.07,11.54-6.63,23.57-7.6,35.77c-0.55,7.2-0.52,14.43,0.1,21.62l-0.04-0.26
		c-1.55-8-5.82-15.22-12.08-20.43c-9.3-7.64-22.43-10.45-32.46-16.59c-3.09-1.98-7.19-1.09-9.18,2c-0.85,1.32-1.2,2.9-1,4.46
		c0.01,0.09,0.03,0.18,0.04,0.27c1.5,0.61,2.95,1.31,4.36,2.1c0.81,0.45,1.59,0.94,2.37,1.45c2.66,1.78,3.37,5.37,1.6,8.03
		c-0.9,1.35-2.33,2.26-3.93,2.5l-0.12,0.02c-0.08,0.01-0.16,0.02-0.24,0.04c2.55,6.1,6.14,11.71,10.6,16.6
		c11.13,11.95,26.7,18.78,43.03,18.88h0.01c2.19,9.53,5.37,18.81,9.48,27.68h33.87c0.12-0.38,0.23-0.76,0.34-1.14
		c-3.14,0.2-6.28,0.01-9.37-0.56c2.51-3.08,5.03-6.19,7.54-9.28c0.06-0.06,0.11-0.12,0.16-0.18c1.27-1.58,2.56-3.14,3.84-4.72l0,0
		C167.11,772.45,166.55,767.62,165.39,762.92L165.39,762.92z"/>
	<path class="st9" d="M392.9,795.54L67.36,795.9c-0.78,0-1.41-0.62-1.41-1.4c0-0.78,0.62-1.41,1.4-1.41c0,0,0.01,0,0.01,0
		l325.54-0.36c0.78,0,1.4,0.63,1.4,1.41C394.3,794.91,393.67,795.54,392.9,795.54z"/>
	<path class="st2" d="M573.6,765.98h-83.82c-5.54-0.01-10.03-4.5-10.03-10.03v-29.51c0.01-5.54,4.5-10.03,10.03-10.03h83.82
		c5.54,0.01,10.03,4.5,10.03,10.03v29.51C583.63,761.48,579.14,765.97,573.6,765.98z"/>
</g>
</svg>
