<?xml version="1.0" encoding="UTF-8"?><svg id="Warstwa_1" xmlns="http://www.w3.org/2000/svg" viewBox="0 0 271.88 219.38"><path d="M35.66,6.58l225.03,174.7c10.06,7.81,14.09,19.48,8.98,26.05l-5.98,7.7c-5.1,6.57-17.4,5.57-27.46-2.24L11.19,38.09C1.13,30.28-2.89,18.62,2.21,12.04l5.98-7.7C13.3-2.23,25.59-1.23,35.66,6.58Z"/><path d="M236.23,6.58L11.19,181.28c-10.06,7.81-14.09,19.48-8.98,26.05l5.98,7.7c5.1,6.57,17.4,5.57,27.46-2.24L260.69,38.09c10.06-7.81,14.09-19.48,8.98-26.05l-5.98-7.7c-5.1-6.57-17.4-5.57-27.46,2.24Z"/></svg>