<?xml version="1.0" encoding="utf-8"?>
<!-- Generator: Adobe Illustrator 26.5.1, SVG Export Plug-In . SVG Version: 6.00 Build 0)  -->
<svg version="1.1" id="Warstwa_1" xmlns="http://www.w3.org/2000/svg" xmlns:xlink="http://www.w3.org/1999/xlink" x="0px" y="0px"
	 viewBox="0 0 331 241" style="enable-background:new 0 0 331 241;" xml:space="preserve">
<path d="M23.1,0H308C320.7,0,331,6.7,331,15.1v9.7c0,8.3-10.3,15.1-23.1,15.1H23.1C10.3,39.9,0,33.1,0,24.8v-9.7
	C0,6.7,10.3,0,23.1,0z"/>
<path d="M23.1,100.6H308c12.7,0,23.1,6.7,23.1,15.1v9.8c0,8.3-10.3,15.1-23.1,15.1H23.1c-12.7,0-23.1-6.7-23.1-15.1v-9.8
	C0,107.3,10.3,100.6,23.1,100.6z"/>
<path d="M23.1,201.1H308c12.7,0,23.1,6.7,23.1,15.1v9.8c0,8.3-10.3,15.1-23.1,15.1H23.1C10.3,241,0,234.3,0,225.9v-9.8
	C0,207.9,10.3,201.1,23.1,201.1z"/>
</svg>
