<?xml version="1.0" encoding="UTF-8"?><svg id="CreativeBlock" xmlns="http://www.w3.org/2000/svg" viewBox="0 0 391 98.34"><defs><style>.cls-1{fill:#c60089;}</style></defs><g><path d="M0,30.2C0,21.25,6.48,14.1,16.34,14.1c2.48,0,4.9,.48,6.54,1.33l-.12,8.53c-.97-.61-2.66-1.27-5.08-1.27-5.02,0-7.93,3.27-7.93,7.51s2.91,7.57,7.93,7.57c2.36,0,4.12-.67,5.08-1.27l.12,8.47c-1.51,.79-4.06,1.39-6.6,1.39C6.42,46.36,0,39.22,0,30.2Z"/><path d="M49.63,14.47v9.08c-.85-.42-2.12-.73-3.69-.73-3.69,0-6.66,2.12-6.66,7.02v15.56h-9.68V15.07h8.96v6.9c1.33-4.84,4.48-7.87,8.41-7.87,.97,0,2,.18,2.66,.36Z"/><path class="cls-1" d="M80.08,27.41l-18.45,7.16c2.28,3.53,5.4,3.88,10.08,2.06,4.12-1.6,6.9-3.97,8.4-6.12l2.84,7.34c-1.84,2.79-5.8,5.3-9.52,6.74-9.54,3.7-17.73,.32-21.38-9.11-3.41-8.8,.07-17.23,8.53-20.51,7.73-3,15.17-.04,18.46,8.42,.59,1.52,.87,2.91,1.04,4.01Zm-20.51,2.18l11.23-4.35c-1.5-3.38-4.16-4.36-7.49-3.07-3.1,1.2-4.49,3.82-3.74,7.42Z"/><path d="M117.06,38.01v7.08c-.67,.55-2.78,1.21-4.66,1.21-3.99,0-6.48-2.06-6.54-5.81-.36,.85-.97,1.63-1.69,2.36-2.06,2.12-5.27,3.51-9.08,3.51-5.63,0-9.2-3.33-9.2-8.23,0-2.48,.91-4.42,2.12-5.69,1.94-2,4.96-2.91,8.17-3.63,3.45-.73,6.84-1.09,8.23-2.3,.48-.42,.67-.85,.67-1.45,0-1.21-1.27-2.24-4.84-2.24-4.66,0-9.5,1.75-12.89,3.81v-9.02c2.78-1.69,8.23-3.51,13.38-3.51,9.32,0,13.56,4.06,13.56,10.53v11.8c0,1.27,.67,1.82,1.63,1.82,.61,0,.91-.12,1.15-.24Zm-11.32-6.48c-.97,.85-2.6,1.39-4.24,1.76-2.06,.48-3.87,.97-4.9,1.94-.54,.54-.91,1.15-.91,2,0,1.39,1.03,2.66,3.27,2.66,1.88,0,3.33-.73,4.42-1.82,1.57-1.57,2.36-3.93,2.36-6.54Z"/><path d="M133.28,23v9.99c0,2.66,1.33,4.3,4.12,4.3,1.09,0,2.18-.24,2.84-.48v8.66c-1.03,.48-3.09,.91-5.02,.91-7.32,0-11.74-4.78-11.74-12.77v-10.59h-4.78v-7.93h4.78V5.99h9.81V15.07h6.96v7.93h-6.96Z"/><path d="M145.38,5.57c0-3.45,2.36-5.33,5.57-5.33s5.63,1.88,5.63,5.33-2.3,5.27-5.63,5.27-5.57-1.88-5.57-5.27Zm.73,9.5h9.68v30.32h-9.68V15.07Z"/><path d="M191.02,15.07l-14.95,31.11h-1.15l-15.01-31.11h9.87l5.69,13.98,5.87-13.98h9.68Z"/><path d="M220.07,32.75h-19.79c.85,4.12,3.63,5.57,8.66,5.57,4.42,0,7.87-1.21,10.05-2.66v7.87c-2.72,1.94-7.32,2.84-11.32,2.84-10.23,0-16.64-6.11-16.64-16.22,0-9.44,6.29-16.04,15.37-16.04,8.29,0,14.16,5.45,14.16,14.53,0,1.63-.24,3.03-.48,4.12Zm-19.91-5.39h12.04c-.18-3.69-2.3-5.57-5.87-5.57-3.33,0-5.57,1.94-6.17,5.57Z"/><path d="M270.86,29.84c0,9.56-6.84,16.52-16.52,16.52s-16.04-6.78-16.04-17.25V0h9.14V18.95c1.88-3.03,5.08-4.84,9.38-4.84,7.93,0,14.04,6.66,14.04,15.74Zm-9.2,.36c0-4.66-2.78-7.63-7.14-7.63s-7.08,3.03-7.08,7.63,2.91,7.69,7.08,7.69,7.14-3.03,7.14-7.69Z"/><path d="M276.42,38.01V0h9.68V36.62c0,1.15,.61,1.75,1.51,1.75,.61,0,1.03-.12,1.27-.3v7.14c-.85,.61-2.72,1.15-4.24,1.15-5.33,0-8.23-3.15-8.23-8.35Z"/><path d="M292.7,30.14c0-9.14,7.26-16.04,16.58-16.04s16.46,6.96,16.46,16.04-7.2,16.22-16.46,16.22-16.58-6.9-16.58-16.22Zm23.79,.06c0-4.6-3.09-7.69-7.2-7.69s-7.2,3.09-7.2,7.69,3.09,7.63,7.2,7.63,7.2-3.09,7.2-7.63Z"/><path d="M329.57,30.2c0-8.96,6.48-16.1,16.34-16.1,2.48,0,4.9,.48,6.54,1.33l-.12,8.53c-.97-.61-2.66-1.27-5.08-1.27-5.02,0-7.93,3.27-7.93,7.51s2.91,7.57,7.93,7.57c2.36,0,4.11-.67,5.08-1.27l.12,8.47c-1.51,.79-4.06,1.39-6.6,1.39-9.87,0-16.28-7.14-16.28-16.16Z"/><path d="M379.62,45.4l-11.14-15.25v15.25h-9.75V0h9.75V28.63l11.02-13.56h10.71l-11.5,13.92,12.29,16.4h-11.38Z"/></g><g><path d="M102.3,61.68v28.46h-2.16v-4.59c-1.33,3.26-4.1,5.12-7.51,5.12-5.16,0-9.07-4.02-9.07-9.9s3.91-9.98,9.07-9.98c3.3,0,6.03,1.75,7.4,4.86v-13.96h2.28Zm-1.97,19.05c0-4.71-3.19-7.93-7.32-7.93s-7.25,3.07-7.25,7.97,3.11,7.86,7.25,7.86,7.32-3.19,7.32-7.89Z"/><path d="M123.86,81.34h-15.41c.27,4.86,3.04,7.32,7.86,7.32,2.81,0,5.24-.83,6.75-1.86v2.05c-1.78,1.18-4.48,1.82-6.94,1.82-6.22,0-9.87-3.72-9.87-10.09,0-5.92,3.91-9.79,9.18-9.79s8.54,3.72,8.54,9.18c0,.46-.04,.91-.11,1.37Zm-15.41-1.86h13.4c-.11-4.1-2.24-6.79-6.45-6.79-3.79,0-6.57,2.47-6.94,6.79Z"/><path d="M127.61,89.31v-2.09c1.03,.76,3.04,1.44,5.16,1.44,3.42,0,5.2-1.48,5.2-3.64,0-1.78-1.18-2.66-3.42-3.57l-2.39-.95c-2.58-1.06-4.14-2.39-4.14-4.82,0-2.85,2.69-4.9,6.76-4.9,1.56,0,3.23,.46,4.17,1.03v2.05c-1.06-.61-2.54-1.06-4.14-1.06-2.73,0-4.55,1.1-4.55,2.96,0,1.52,1.02,2.24,2.85,2.96l2.35,.95c2.96,1.21,4.63,2.69,4.63,5.39,0,3-2.5,5.62-7.29,5.62-2.24,0-4.17-.64-5.2-1.37Z"/><path d="M144.15,65.21c0-1.06,.68-1.63,1.63-1.63,1.02,0,1.67,.57,1.67,1.63,0,.99-.65,1.56-1.67,1.56-.95,0-1.63-.57-1.63-1.56Zm.49,6.07h2.28v18.86h-2.28v-18.86Z"/><path d="M170.22,71.28v17.88c0,5.62-3.23,9.18-9.75,9.18-3.11,0-5.65-1.18-7.1-2.35v-2.16c1.56,1.33,4.02,2.5,7.06,2.5,5.35,0,7.63-3.04,7.63-7.13v-3.68c-1.37,3.26-4.17,5.16-7.63,5.16-5.24,0-9.18-4.02-9.18-9.9s3.95-9.98,9.18-9.98c3.45,0,6.26,1.86,7.63,5.16v-4.67h2.16Zm-1.97,9.45c0-4.71-3.26-7.93-7.44-7.93s-7.36,3.07-7.36,7.97,3.15,7.86,7.36,7.86,7.44-3.19,7.44-7.89Z"/><path d="M192.08,79.1v11.04h-2.28v-10.63c0-4.25-2.24-6.87-5.84-6.87s-6.34,2.96-6.34,7.51v9.98h-2.28v-18.86h2.16v4.48c.87-2.73,3.38-4.97,7.02-4.97,4.52,0,7.55,3.11,7.55,8.31Z"/><path d="M205.81,89.31v-2.09c1.02,.76,3.04,1.44,5.16,1.44,3.42,0,5.2-1.48,5.2-3.64,0-1.78-1.18-2.66-3.41-3.57l-2.39-.95c-2.58-1.06-4.14-2.39-4.14-4.82,0-2.85,2.69-4.9,6.75-4.9,1.56,0,3.23,.46,4.18,1.03v2.05c-1.06-.61-2.54-1.06-4.14-1.06-2.73,0-4.55,1.1-4.55,2.96,0,1.52,1.03,2.24,2.85,2.96l2.35,.95c2.96,1.21,4.63,2.69,4.63,5.39,0,3-2.51,5.62-7.29,5.62-2.24,0-4.18-.64-5.2-1.37Z"/><path d="M225.89,73.29v11.2c0,2.66,1.18,4.02,3.45,4.02,.99,0,2.05-.27,2.73-.68v2.09c-.76,.46-1.97,.76-3.07,.76-3.45,0-5.39-2.28-5.39-6.19v-11.2h-3.34v-2.01h3.34v-5.81h2.28v5.81h6.19v2.01h-6.19Z"/><path d="M235.11,82.21v-10.93h2.28v10.93c0,3.91,2.24,6.41,5.84,6.41s5.84-2.5,5.84-6.41v-10.93h2.28v10.93c0,5.31-3.19,8.46-8.12,8.46s-8.12-3.15-8.12-8.46Z"/><path d="M273.89,61.68v28.46h-2.16v-4.59c-1.33,3.26-4.1,5.12-7.51,5.12-5.16,0-9.07-4.02-9.07-9.9s3.91-9.98,9.07-9.98c3.3,0,6.03,1.75,7.4,4.86v-13.96h2.28Zm-1.97,19.05c0-4.71-3.19-7.93-7.32-7.93s-7.25,3.07-7.25,7.97,3.11,7.86,7.25,7.86,7.32-3.19,7.32-7.89Z"/><path d="M278.82,65.21c0-1.06,.68-1.63,1.63-1.63,1.03,0,1.67,.57,1.67,1.63,0,.99-.64,1.56-1.67,1.56-.95,0-1.63-.57-1.63-1.56Zm.49,6.07h2.28v18.86h-2.28v-18.86Z"/><path d="M285.91,80.73c0-5.77,4.4-9.94,9.83-9.94s9.83,4.21,9.83,9.94-4.33,9.94-9.83,9.94-9.83-4.17-9.83-9.94Zm17.46,0c0-4.71-3.26-7.93-7.63-7.93s-7.63,3.23-7.63,7.93,3.38,7.89,7.63,7.89,7.63-3.23,7.63-7.89Z"/></g></svg>