<?xml version="1.0" encoding="utf-8"?>
<!-- Generator: Adobe Illustrator 26.5.1, SVG Export Plug-In . SVG Version: 6.00 Build 0)  -->
<svg version="1.1" id="CreativeBlock" xmlns="http://www.w3.org/2000/svg" xmlns:xlink="http://www.w3.org/1999/xlink" x="0px"
	 y="0px" viewBox="0 0 391 98.3" style="enable-background:new 0 0 391 98.3;" xml:space="preserve">
<style type="text/css">
	.st0{fill:#C60089;}
</style>
<g>
	<path d="M102.3,61.7v28.5h-2.2v-4.6c-1.3,3.3-4.1,5.1-7.5,5.1c-5.2,0-9.1-4-9.1-9.9s3.9-10,9.1-10c3.3,0,6,1.8,7.4,4.9v-14
		L102.3,61.7L102.3,61.7z M100.3,80.7c0-4.7-3.2-7.9-7.3-7.9s-7.2,3.1-7.2,8s3.1,7.9,7.2,7.9S100.3,85.4,100.3,80.7L100.3,80.7z"/>
	<path d="M123.9,81.3h-15.4c0.3,4.9,3,7.3,7.9,7.3c2.8,0,5.2-0.8,6.8-1.9v2.1c-1.8,1.2-4.5,1.8-6.9,1.8c-6.2,0-9.9-3.7-9.9-10.1
		c0-5.9,3.9-9.8,9.2-9.8s8.5,3.7,8.5,9.2C124,80.4,123.9,80.9,123.9,81.3z M108.4,79.5h13.4c-0.1-4.1-2.2-6.8-6.4-6.8
		C111.6,72.7,108.8,75.2,108.4,79.5L108.4,79.5z"/>
	<path d="M127.6,89.3v-2.1c1,0.8,3,1.4,5.2,1.4c3.4,0,5.2-1.5,5.2-3.6c0-1.8-1.2-2.7-3.4-3.6l-2.4-0.9c-2.6-1.1-4.1-2.4-4.1-4.8
		c0-2.8,2.7-4.9,6.8-4.9c1.6,0,3.2,0.5,4.2,1v2.1c-1.1-0.6-2.5-1.1-4.1-1.1c-2.7,0-4.6,1.1-4.6,3c0,1.5,1,2.2,2.9,3l2.4,0.9
		c3,1.2,4.6,2.7,4.6,5.4c0,3-2.5,5.6-7.3,5.6C130.6,90.7,128.6,90,127.6,89.3L127.6,89.3z"/>
	<path d="M144.1,65.2c0-1.1,0.7-1.6,1.6-1.6c1,0,1.7,0.6,1.7,1.6c0,1-0.6,1.6-1.7,1.6C144.8,66.8,144.1,66.2,144.1,65.2z
		 M144.6,71.3h2.3v18.9h-2.3V71.3z"/>
	<path d="M170.2,71.3v17.9c0,5.6-3.2,9.2-9.8,9.2c-3.1,0-5.6-1.2-7.1-2.3v-2.2c1.6,1.3,4,2.5,7.1,2.5c5.4,0,7.6-3,7.6-7.1v-3.7
		c-1.4,3.3-4.2,5.2-7.6,5.2c-5.2,0-9.2-4-9.2-9.9s3.9-10,9.2-10c3.4,0,6.3,1.9,7.6,5.2v-4.7L170.2,71.3L170.2,71.3z M168.2,80.7
		c0-4.7-3.3-7.9-7.4-7.9s-7.4,3.1-7.4,8s3.1,7.9,7.4,7.9S168.2,85.4,168.2,80.7L168.2,80.7z"/>
	<path d="M192.1,79.1v11h-2.3V79.5c0-4.2-2.2-6.9-5.8-6.9s-6.3,3-6.3,7.5v10h-2.3V71.3h2.2v4.5c0.9-2.7,3.4-5,7-5
		C189,70.8,192.1,73.9,192.1,79.1L192.1,79.1z"/>
	<path d="M205.8,89.3v-2.1c1,0.8,3,1.4,5.2,1.4c3.4,0,5.2-1.5,5.2-3.6c0-1.8-1.2-2.7-3.4-3.6l-2.4-0.9c-2.6-1.1-4.1-2.4-4.1-4.8
		c0-2.8,2.7-4.9,6.8-4.9c1.6,0,3.2,0.5,4.2,1v2.1c-1.1-0.6-2.5-1.1-4.1-1.1c-2.7,0-4.6,1.1-4.6,3c0,1.5,1,2.2,2.9,3l2.4,0.9
		c3,1.2,4.6,2.7,4.6,5.4c0,3-2.5,5.6-7.3,5.6C208.8,90.7,206.8,90,205.8,89.3L205.8,89.3z"/>
	<path d="M225.9,73.3v11.2c0,2.7,1.2,4,3.4,4c1,0,2.1-0.3,2.7-0.7v2.1c-0.8,0.5-2,0.8-3.1,0.8c-3.4,0-5.4-2.3-5.4-6.2V73.3h-3.3v-2
		h3.3v-5.8h2.3v5.8h6.2v2L225.9,73.3L225.9,73.3z"/>
	<path d="M235.1,82.2V71.3h2.3v10.9c0,3.9,2.2,6.4,5.8,6.4s5.8-2.5,5.8-6.4V71.3h2.3v10.9c0,5.3-3.2,8.5-8.1,8.5
		S235.1,87.5,235.1,82.2z"/>
	<path d="M273.9,61.7v28.5h-2.2v-4.6c-1.3,3.3-4.1,5.1-7.5,5.1c-5.2,0-9.1-4-9.1-9.9s3.9-10,9.1-10c3.3,0,6,1.8,7.4,4.9v-14
		L273.9,61.7L273.9,61.7z M271.9,80.7c0-4.7-3.2-7.9-7.3-7.9s-7.2,3.1-7.2,8s3.1,7.9,7.2,7.9S271.9,85.4,271.9,80.7L271.9,80.7z"/>
	<path d="M278.8,65.2c0-1.1,0.7-1.6,1.6-1.6c1,0,1.7,0.6,1.7,1.6c0,1-0.6,1.6-1.7,1.6C279.5,66.8,278.8,66.2,278.8,65.2z
		 M279.3,71.3h2.3v18.9h-2.3V71.3z"/>
	<path d="M285.9,80.7c0-5.8,4.4-9.9,9.8-9.9s9.8,4.2,9.8,9.9s-4.3,9.9-9.8,9.9S285.9,86.5,285.9,80.7z M303.4,80.7
		c0-4.7-3.3-7.9-7.6-7.9s-7.6,3.2-7.6,7.9s3.4,7.9,7.6,7.9S303.4,85.4,303.4,80.7z"/>
</g>
<path d="M31.7,46.4c-3.2,0-6-0.7-8.3-2c-2.4-1.3-4.2-3.2-5.6-5.5c-1.3-2.3-2-4.9-2-7.9c0-2.9,0.7-5.6,2-7.9c1.3-2.3,3.2-4.1,5.6-5.5
	c2.4-1.3,5.2-2,8.3-2c2.7,0,5.1,0.5,7.2,1.5c2.1,1,3.7,2.3,5,4.1s2,3.7,2.2,6H35.7c-0.2-0.9-0.5-1.6-0.8-2.2
	c-0.4-0.6-0.8-1.1-1.3-1.4s-1.2-0.5-2-0.5c-1.1,0-2,0.3-2.7,1c-0.7,0.6-1.3,1.6-1.6,2.7c-0.4,1.2-0.5,2.6-0.5,4.2
	c0,1.6,0.2,3,0.6,4.1s0.9,2.1,1.7,2.7c0.7,0.6,1.6,0.9,2.7,0.9c1.3,0,2.3-0.4,3-1.3c0.7-0.9,1.1-2.1,1.2-3.7h10.3
	c0,2.4-0.6,4.5-1.8,6.4s-2.9,3.4-5.1,4.5C37.1,45.8,34.6,46.4,31.7,46.4z"/>
<path d="M49.9,45.6V16.3h10.3v4.4h0.2c1.2-1.8,2.5-3.2,4-3.9s3.1-1.2,4.9-1.2c0.4,0,0.8,0,1.1,0.1c0.3,0.1,0.6,0.1,0.8,0.2v9.3h-0.3
	c-0.4-0.1-0.9-0.1-1.3-0.2c-0.4,0-0.8,0-1.2,0c-1.2,0-2.3,0.2-3.3,0.5c-0.9,0.4-1.7,0.9-2.4,1.6c-0.6,0.7-1.1,1.6-1.5,2.7
	c-0.3,1.1-0.5,2.3-0.5,3.8v12H49.9z"/>
<path class="st0" d="M94.5,45.4c-3,1.1-5.8,1.4-8.5,1c-2.7-0.4-5.1-1.5-7.1-3.2c-2-1.7-3.6-3.9-4.6-6.7c-1-2.7-1.3-5.4-0.9-8
	c0.4-2.6,1.5-5,3.2-7c1.7-2.1,4-3.6,6.9-4.7c2.1-0.8,4.1-1.2,6-1.1c1.9,0.1,3.6,0.4,5.3,1.1c2.2,0.9,4.2,2.3,5.8,4.4
	c1.6,2,2.9,4.4,3.9,7.1l-19.4,7.2c0.6,1,1.3,1.7,2,2.3c0.7,0.6,1.5,0.9,2.4,1.1c0.9,0.1,1.8,0,2.8-0.4c0.9-0.3,1.6-0.8,2.1-1.3
	c0.5-0.6,0.8-1.3,0.9-2.1l9.7-3.6c0.3,2-0.1,3.9-1,5.8c-0.9,1.8-2.2,3.5-3.9,4.9C98.5,43.5,96.6,44.6,94.5,45.4z M83.2,30l9.4-3.5
	c-0.5-1-1.1-1.8-1.8-2.3c-0.7-0.6-1.4-0.9-2.2-1.1C87.8,23,87,23,86.2,23.3c-0.9,0.3-1.6,0.8-2.1,1.5c-0.5,0.6-0.8,1.4-1,2.3
	C83,27.9,83,28.9,83.2,30z"/>
<path d="M117.2,46.4c-1.8,0-3.5-0.3-5-1c-1.5-0.7-2.6-1.7-3.5-3c-0.8-1.3-1.3-2.9-1.3-4.8c0-2.1,0.5-3.8,1.5-5
	c1-1.2,2.3-2.1,3.9-2.7c1.6-0.6,3.3-1,5.2-1.2c2-0.2,3.6-0.5,4.7-0.7s1.9-0.6,2.4-1c0.5-0.4,0.7-0.9,0.7-1.5c0-0.8-0.2-1.4-0.7-2
	c-0.4-0.5-1.3-0.8-2.4-0.8c-1.1,0-2,0.3-2.6,0.9c-0.6,0.6-1,1.5-1.1,2.5h-10.2c0.1-1.9,0.6-3.7,1.7-5.2c1-1.6,2.5-2.8,4.5-3.8
	c2-0.9,4.5-1.4,7.5-1.4c2.2,0,4.1,0.1,5.6,0.4c1.5,0.3,2.8,0.8,3.9,1.5c1.5,1,2.6,2.2,3.4,3.6c0.7,1.5,1.1,3.1,1.1,5v14.5
	c0,1.2,0.1,2.1,0.2,2.8c0.1,0.7,0.4,1.2,0.9,1.5v0.4h-10.6c-0.2-0.3-0.3-0.8-0.5-1.2c-0.2-0.5-0.3-1.1-0.4-1.9h-0.1
	c-1,1.4-2.2,2.3-3.7,3S119,46.4,117.2,46.4z M121.1,40c0.9,0,1.7-0.2,2.4-0.5c0.7-0.3,1.4-0.9,1.8-1.6c0.5-0.7,0.7-1.6,0.7-2.8v-2.6
	c-0.3,0.2-0.7,0.3-1.1,0.5c-0.4,0.2-0.9,0.3-1.4,0.4c-0.5,0.1-1,0.3-1.7,0.5c-1,0.2-1.8,0.5-2.5,0.8c-0.6,0.3-1,0.6-1.3,1.1
	c-0.2,0.4-0.4,0.9-0.4,1.5c0,0.6,0.2,1.1,0.5,1.6c0.3,0.4,0.7,0.7,1.2,0.9C120,39.9,120.6,40,121.1,40z"/>
<path d="M154.7,46.2c-2.4,0-4.4-0.3-6-0.8c-1.6-0.5-2.8-1.4-3.6-2.7s-1.2-3.1-1.2-5.5V22.8h-3.8v-6.5h3.8V6.8h10.6v9.5h5.6v6.5h-5.6
	v11.9c0,1.1,0.3,1.9,0.9,2.3s1.4,0.6,2.4,0.6c0.3,0,0.6,0,1,0s0.7-0.1,1.1-0.1h0.1v8c-0.8,0.2-1.7,0.3-2.5,0.5
	C156.6,46.1,155.7,46.2,154.7,46.2z"/>
<rect x="164" y="5" class="st0" width="10.7" height="7.8"/>
<rect x="164" y="16.3" width="10.7" height="29.3"/>
<path d="M187.6,45.6l-10.1-29.3h11.3l3.3,11.2c0.2,0.8,0.4,1.6,0.7,2.4c0.2,0.8,0.4,1.6,0.6,2.3c0.2,0.7,0.4,1.5,0.6,2.4h0.1
	c0.2-0.9,0.5-1.7,0.7-2.4c0.2-0.7,0.4-1.5,0.6-2.3c0.2-0.8,0.5-1.6,0.7-2.4l3.3-11.2h11l-10.1,29.3H187.6z"/>
<path d="M226.3,46.4c-3.2,0-5.9-0.7-8.3-2c-2.4-1.3-4.2-3.2-5.5-5.5c-1.3-2.3-2-4.9-2-7.9c0-2.9,0.7-5.5,2-7.8s3.1-4.2,5.4-5.5
	c2.3-1.3,5-2,8.1-2c2.3,0,4.3,0.4,6,1.1c1.7,0.7,3.3,1.7,4.6,2.9c1.8,1.6,3.1,3.6,3.9,6.1c0.8,2.5,1.2,5.2,1.2,8H221
	c0.2,1.1,0.6,2.1,1.1,2.9c0.5,0.8,1.1,1.4,1.9,1.8s1.7,0.6,2.7,0.6c1,0,1.8-0.2,2.5-0.5c0.7-0.4,1.2-0.9,1.6-1.6h10.4
	c-0.4,2-1.4,3.7-2.9,5.1c-1.5,1.4-3.3,2.5-5.4,3.3C230.7,46,228.6,46.4,226.3,46.4z M221,28.1h10c-0.1-1.1-0.4-2-0.9-2.8
	c-0.4-0.8-1-1.4-1.7-1.8c-0.7-0.4-1.4-0.6-2.3-0.6c-1,0-1.8,0.2-2.5,0.6c-0.7,0.4-1.3,1-1.7,1.8C221.5,26,221.2,27,221,28.1z"/>
<path d="M262.4,46.4c-1.8,0-3.5-0.3-5-1s-2.6-1.7-3.5-3c-0.8-1.3-1.3-2.9-1.3-4.8c0-2.1,0.5-3.8,1.5-5c1-1.2,2.3-2.1,3.9-2.7
	c1.6-0.6,3.3-1,5.2-1.2c2-0.2,3.6-0.5,4.7-0.7s1.9-0.6,2.4-1c0.5-0.4,0.7-0.9,0.7-1.5c0-0.8-0.2-1.4-0.7-2c-0.4-0.5-1.3-0.8-2.4-0.8
	c-1.1,0-2,0.3-2.6,0.9c-0.6,0.6-1,1.5-1.1,2.5H254c0.1-1.9,0.6-3.7,1.7-5.2s2.5-2.8,4.5-3.8c2-0.9,4.5-1.4,7.5-1.4
	c2.2,0,4.1,0.1,5.6,0.4c1.5,0.3,2.8,0.8,3.9,1.5c1.5,1,2.6,2.2,3.4,3.6c0.7,1.5,1.1,3.1,1.1,5v14.5c0,1.2,0.1,2.1,0.2,2.8
	c0.1,0.7,0.4,1.2,0.9,1.5v0.4h-10.6c-0.2-0.3-0.3-0.8-0.5-1.2c-0.2-0.5-0.3-1.1-0.4-1.9h-0.1c-1,1.4-2.2,2.3-3.7,3
	S264.2,46.4,262.4,46.4z M266.4,40c0.9,0,1.7-0.2,2.4-0.5c0.7-0.3,1.4-0.9,1.8-1.6c0.5-0.7,0.7-1.6,0.7-2.8v-2.6
	c-0.3,0.2-0.7,0.3-1.1,0.5c-0.4,0.2-0.9,0.3-1.4,0.4c-0.5,0.1-1,0.3-1.7,0.5c-1,0.2-1.8,0.5-2.5,0.8c-0.6,0.3-1,0.6-1.3,1.1
	s-0.4,0.9-0.4,1.5c0,0.6,0.2,1.1,0.5,1.6c0.3,0.4,0.7,0.7,1.2,0.9C265.2,39.9,265.8,40,266.4,40z"/>
<path d="M287.1,45.6V16.3h10.3v4.4h0.2c1.2-1.8,2.5-3.2,4-3.9c1.4-0.8,3.1-1.2,4.9-1.2c0.4,0,0.8,0,1.1,0.1c0.3,0.1,0.6,0.1,0.8,0.2
	v9.3h-0.3c-0.4-0.1-0.9-0.1-1.3-0.2c-0.4,0-0.8,0-1.2,0c-1.2,0-2.3,0.2-3.3,0.5s-1.7,0.9-2.4,1.6c-0.6,0.7-1.1,1.6-1.5,2.7
	c-0.3,1.1-0.5,2.3-0.5,3.8v12H287.1z"/>
<path d="M326.4,46.4c-3.2,0-5.9-0.7-8.3-2c-2.4-1.3-4.2-3.2-5.5-5.5c-1.3-2.3-2-4.9-2-7.9c0-2.9,0.7-5.5,2-7.8s3.1-4.2,5.4-5.5
	c2.3-1.3,5-2,8.1-2c2.3,0,4.3,0.4,6,1.1c1.7,0.7,3.3,1.7,4.6,2.9c1.8,1.6,3.1,3.6,3.9,6.1c0.8,2.5,1.2,5.2,1.2,8h-20.7
	c0.2,1.1,0.6,2.1,1.1,2.9c0.5,0.8,1.1,1.4,1.9,1.8s1.7,0.6,2.7,0.6c1,0,1.8-0.2,2.5-0.5c0.7-0.4,1.2-0.9,1.6-1.6h10.4
	c-0.4,2-1.4,3.7-2.9,5.1c-1.5,1.4-3.3,2.5-5.4,3.3C330.8,46,328.7,46.4,326.4,46.4z M321.1,28.1h10c-0.1-1.1-0.4-2-0.9-2.8
	c-0.4-0.8-1-1.4-1.7-1.8c-0.7-0.4-1.4-0.6-2.3-0.6c-1,0-1.8,0.2-2.5,0.6c-0.7,0.4-1.3,1-1.7,1.8C321.6,26,321.3,27,321.1,28.1z"/>
<path d="M354.4,46.4c-1.8,0-3.5-0.3-5-1s-2.6-1.7-3.5-3c-0.8-1.3-1.3-2.9-1.3-4.8c0-2.1,0.5-3.8,1.5-5c1-1.2,2.3-2.1,3.9-2.7
	c1.6-0.6,3.3-1,5.2-1.2c2-0.2,3.6-0.5,4.7-0.7s1.9-0.6,2.4-1c0.5-0.4,0.7-0.9,0.7-1.5c0-0.8-0.2-1.4-0.7-2c-0.4-0.5-1.3-0.8-2.4-0.8
	c-1.1,0-2,0.3-2.6,0.9c-0.6,0.6-1,1.5-1.1,2.5H346c0.1-1.9,0.6-3.7,1.7-5.2s2.5-2.8,4.5-3.8c2-0.9,4.5-1.4,7.5-1.4
	c2.2,0,4.1,0.1,5.6,0.4c1.5,0.3,2.8,0.8,3.9,1.5c1.5,1,2.6,2.2,3.4,3.6c0.7,1.5,1.1,3.1,1.1,5v14.5c0,1.2,0.1,2.1,0.2,2.8
	c0.1,0.7,0.4,1.2,0.9,1.5v0.4h-10.6c-0.2-0.3-0.3-0.8-0.5-1.2c-0.2-0.5-0.3-1.1-0.4-1.9h-0.1c-1,1.4-2.2,2.3-3.7,3
	S356.2,46.4,354.4,46.4z M358.3,40c0.9,0,1.7-0.2,2.4-0.5c0.7-0.3,1.4-0.9,1.8-1.6c0.5-0.7,0.7-1.6,0.7-2.8v-2.6
	c-0.3,0.2-0.7,0.3-1.1,0.5c-0.4,0.2-0.9,0.3-1.4,0.4c-0.5,0.1-1,0.3-1.7,0.5c-1,0.2-1.8,0.5-2.5,0.8c-0.6,0.3-1,0.6-1.3,1.1
	s-0.4,0.9-0.4,1.5c0,0.6,0.2,1.1,0.5,1.6c0.3,0.4,0.7,0.7,1.2,0.9C357.2,39.9,357.8,40,358.3,40z"/>
</svg>
